<svg width="41" height="41" viewBox="0 0 41 41" fill="none" xmlns="http://www.w3.org/2000/svg">
    <path
        d="M5.125 15.3753C5.125 14.9222 5.30498 14.4877 5.62536 14.1674C5.94573 13.847 6.38026 13.667 6.83333 13.667H34.1667C34.6197 13.667 35.0543 13.847 35.3746 14.1674C35.695 14.4877 35.875 14.9222 35.875 15.3753V18.792C35.875 19.2451 35.695 19.6796 35.3746 20C35.0543 20.3203 34.6197 20.5003 34.1667 20.5003H6.83333C6.38026 20.5003 5.94573 20.3203 5.62536 20C5.30498 19.6796 5.125 19.2451 5.125 18.792V15.3753Z"
        stroke="#07865c" stroke-width="2" stroke-linecap="round" stroke-linejoin="round" />
    <path d="M20.5 13.667V35.8753" stroke="#07865c" stroke-width="2" stroke-linecap="round"
        stroke-linejoin="round" />
    <path
        d="M32.4583 20.5V32.4583C32.4583 33.3645 32.0983 34.2335 31.4576 34.8743C30.8168 35.515 29.9478 35.875 29.0416 35.875H11.9583C11.0521 35.875 10.1831 35.515 9.54234 34.8743C8.9016 34.2335 8.54163 33.3645 8.54163 32.4583V20.5"
        stroke="#07865c" stroke-width="2" stroke-linecap="round" stroke-linejoin="round" />
    <path
        d="M12.8125 13.6664C11.6798 13.6664 10.5935 13.2165 9.79252 12.4155C8.99159 11.6146 8.54163 10.5283 8.54163 9.3956C8.54163 8.26291 8.99159 7.17661 9.79252 6.37567C10.5935 5.57473 11.6798 5.12477 12.8125 5.12477C14.4605 5.09606 16.0754 5.89567 17.4467 7.41934C18.818 8.943 19.882 11.12 20.5 13.6664C21.1179 11.12 22.1819 8.943 23.5532 7.41934C24.9245 5.89567 26.5395 5.09606 28.1875 5.12477C29.3202 5.12477 30.4065 5.57473 31.2074 6.37567C32.0083 7.17661 32.4583 8.26291 32.4583 9.3956C32.4583 10.5283 32.0083 11.6146 31.2074 12.4155C30.4065 13.2165 29.3202 13.6664 28.1875 13.6664"
        stroke="#07865c" stroke-width="2" stroke-linecap="round" stroke-linejoin="round" />
</svg>